<svg id="Layer_1" data-name="Layer 1" xmlns="http://www.w3.org/2000/svg" viewBox="0 0 11.13 12.29"><defs><style>.cls-1{fill:none;}.cls-1,.cls-2{stroke:#000;stroke-miterlimit:10;stroke-width:0.25px;}.cls-2{fill:#fff;}.cls-3{font-size:5.12px;fill:#39b54a;font-family:Roboto-Regular, Roboto;}</style></defs><path class="cls-1" d="M5.67,5.69a.4.4,0,0,0,.49.23,1.69,1.69,0,0,0,1-.82C7.5,4.56,6.68,3.5,6,2.73A.54.54,0,0,0,5,3.16,9.22,9.22,0,0,0,5.67,5.69Z" transform="translate(-2.29 -2.43)"/><path class="cls-2" d="M7.5,3.53a.87.87,0,0,0-1.27.74L5.87,6.79A1.07,1.07,0,0,0,6,7.4l2.81,4.84a1.11,1.11,0,0,0,1.52.4l2.39-1.39a1.11,1.11,0,0,0,.4-1.52L10.33,4.89a1.19,1.19,0,0,0-.46-.43Z" transform="translate(-2.29 -2.43)"/><circle class="cls-1" cx="4.96" cy="2.13" r="0.43"/><path class="cls-2" d="M6.4,4.52A.88.88,0,0,0,5,4.88l-1,2.32a1.13,1.13,0,0,0,0,.63l1.36,5.43a1.12,1.12,0,0,0,1.35.81l2.68-.67A1.12,1.12,0,0,0,10.1,12L8.74,6.62a1,1,0,0,0-.32-.54Z" transform="translate(-2.29 -2.43)"/><circle class="cls-2" cx="3.58" cy="3.01" r="0.43"/><text class="cls-3" transform="translate(3.61 9.39) rotate(-14.06)">$</text></svg>